<svg xmlns="http://www.w3.org/2000/svg" width="1500" height="500" viewBox="0 0 1500 500" version="1.1"><path d="M -0 250.001 L -0 500.001 750.250 499.751 L 1500.500 499.500 1500.752 249.750 L 1501.004 0 750.502 0 L 0 0 -0 250.001 M 0.492 250.500 C 0.492 388, 0.608 444.101, 0.750 375.170 C 0.892 306.238, 0.892 193.738, 0.750 125.170 C 0.608 56.601, 0.492 113, 0.492 250.500 M 222.868 31.224 C 221.820 32.067, 220.552 36.908, 219.128 45.500 C 217.943 52.650, 215.649 65.925, 214.031 75 C 212.412 84.075, 209.737 99.150, 208.087 108.500 C 206.437 117.850, 203.693 133.375, 201.990 143 C 200.288 152.625, 197.549 168.150, 195.905 177.500 C 189.408 214.448, 186.981 228.201, 183.994 245 C 182.282 254.625, 179.785 268.800, 178.443 276.500 C 177.102 284.200, 174.650 298.150, 172.994 307.500 C 171.338 316.850, 168.876 330.800, 167.522 338.500 C 166.169 346.200, 163.712 360.150, 162.062 369.500 C 156.456 401.280, 154.004 415.498, 154.002 416.250 C 154.001 416.663, 161.350 417, 170.333 417 C 179.317 417, 186.872 417.205, 187.123 417.456 C 187.373 417.707, 186.581 423.878, 185.362 431.170 C 184.143 438.461, 183.365 444.781, 183.632 445.214 C 183.899 445.646, 191.340 446, 200.167 446 L 216.217 446 215.513 448.750 C 214.181 453.954, 211.309 473.976, 211.821 474.487 C 212.635 475.302, 465.376 475.051, 466.615 474.235 C 468.155 473.220, 468.556 471.598, 471.493 454.500 C 472.911 446.250, 475.010 434.414, 476.159 428.197 L 478.248 416.894 481.874 417.197 C 483.868 417.364, 485.415 417.980, 485.311 418.566 C 484.308 424.231, 481.007 444.665, 481.004 445.226 C 481.002 445.625, 488.538 446.075, 497.750 446.226 L 514.500 446.500 514.220 450 C 514.066 451.925, 513.486 455.525, 512.932 458 C 512.378 460.475, 511.830 465.200, 511.713 468.500 L 511.500 474.500 571 474.739 C 603.725 474.871, 631.023 474.643, 631.663 474.234 C 632.302 473.825, 633.314 470.117, 633.911 465.995 C 634.507 461.873, 635.430 455.800, 635.961 452.500 C 636.492 449.200, 637.860 440.425, 639 433 C 640.140 425.575, 641.475 417.025, 641.965 414 C 642.456 410.975, 643.371 405.125, 644 401 C 645.271 392.661, 646.612 384.287, 648.003 376 C 648.511 372.975, 649.403 367.125, 649.987 363 C 652.220 347.199, 652.527 345.675, 653.460 345.753 C 653.988 345.797, 660.759 361.733, 668.508 381.166 L 682.596 416.500 691.311 416.789 L 700.027 417.078 701.901 421.289 C 702.931 423.605, 705.539 430, 707.697 435.500 L 711.619 445.500 720.009 445.794 C 724.624 445.955, 728.912 446.512, 729.537 447.031 C 730.162 447.550, 731.914 451.243, 733.430 455.237 C 734.945 459.232, 737.484 465.313, 739.071 468.750 L 741.957 475 804.443 475 C 875.434 475, 868.293 475.995, 869.576 465.923 C 870.482 458.813, 872.621 448.423, 873.456 447.070 C 874.291 445.721, 914 445.573, 914 446.919 C 914 447.759, 908.725 453.879, 900.171 462.964 C 894.579 468.903, 891.020 473.687, 891.693 474.360 C 892.045 474.712, 926.432 475, 968.107 475 L 1043.881 475 1054.191 462.165 C 1059.861 455.106, 1065.625 447.818, 1067 445.970 C 1068.375 444.122, 1070.678 441.235, 1072.118 439.555 C 1073.559 437.875, 1078.076 432.225, 1082.156 427 C 1086.237 421.775, 1090.325 416.600, 1091.241 415.500 C 1092.158 414.400, 1097.492 407.736, 1103.095 400.691 C 1108.698 393.646, 1113.599 388.246, 1113.986 388.691 C 1114.374 389.136, 1117.309 395.688, 1120.510 403.250 L 1126.329 417 1134.721 417 L 1143.112 417 1144.916 421.250 C 1145.908 423.587, 1148.632 430.113, 1150.970 435.750 L 1155.220 446 1163.487 446 C 1168.946 446, 1172.067 446.425, 1172.672 447.250 C 1173.176 447.938, 1175.074 452.100, 1176.888 456.500 C 1178.703 460.900, 1180.918 466.253, 1181.812 468.397 C 1184.779 475.514, 1178.920 475, 1257.012 475 C 1298.502 475, 1328.115 474.623, 1328.444 474.090 C 1328.754 473.590, 1324.784 464.927, 1319.623 454.840 C 1314.462 444.753, 1305.057 426.375, 1298.723 414 C 1292.389 401.625, 1282.967 383.175, 1277.786 373 C 1272.605 362.825, 1262.375 342.800, 1255.054 328.500 C 1228.433 276.503, 1226.726 272.922, 1227.640 270.989 C 1228.113 269.989, 1232.775 264.540, 1238 258.880 C 1243.225 253.220, 1249.975 245.875, 1253 242.557 C 1256.025 239.240, 1259.177 235.845, 1260.004 235.013 C 1260.832 234.181, 1264.882 229.686, 1269.004 225.024 C 1273.127 220.362, 1279.245 213.612, 1282.600 210.024 C 1285.954 206.436, 1290.454 201.475, 1292.600 199 C 1294.745 196.525, 1297.180 193.825, 1298.012 193 C 1298.844 192.175, 1303.794 186.776, 1309.012 181.002 C 1314.230 175.229, 1319.175 169.829, 1320 169.002 C 1320.826 168.176, 1325.775 162.775, 1331 157 C 1336.225 151.225, 1341.174 145.825, 1342 145 C 1342.825 144.175, 1345.300 141.464, 1347.500 138.975 C 1353.700 131.962, 1368.882 115.266, 1375.206 108.506 C 1378.345 105.151, 1381.867 101.303, 1383.034 99.953 C 1384.201 98.604, 1386.695 95.832, 1388.578 93.794 C 1390.460 91.755, 1392 89.843, 1392 89.544 C 1392 89.245, 1380.075 89, 1365.500 89 C 1350.925 89, 1339 88.712, 1339 88.361 C 1339 87.692, 1345.457 80.347, 1356.457 68.500 C 1360.032 64.650, 1362.967 61.163, 1362.979 60.750 C 1362.990 60.337, 1351.075 60, 1336.500 60 C 1321.925 60, 1310.014 59.663, 1310.030 59.250 C 1310.047 58.837, 1315.631 52.428, 1322.439 45.006 C 1329.246 37.584, 1334.606 31.172, 1334.349 30.756 C 1334.092 30.340, 1300.138 30, 1258.896 30 L 1183.909 30 1181.682 32.250 C 1180.457 33.487, 1171.625 44.625, 1162.055 57 C 1152.485 69.375, 1140.375 85.020, 1135.143 91.766 C 1129.912 98.512, 1125.334 103.687, 1124.972 103.266 C 1124.609 102.845, 1123.266 99.800, 1121.988 96.500 C 1120.709 93.200, 1119.479 90.275, 1119.253 90 C 1119.027 89.725, 1114.984 89.275, 1110.267 89 L 1101.692 88.500 1100.410 85 C 1099.705 83.075, 1097.145 76.775, 1094.723 71 L 1090.318 60.500 1082.249 60.211 C 1077.474 60.040, 1073.778 59.428, 1073.196 58.711 C 1072.654 58.045, 1070.099 52.325, 1067.518 46 C 1064.936 39.675, 1062.163 33.464, 1061.355 32.197 L 1059.885 29.895 989.432 30.061 C 950.682 30.152, 918.743 30.606, 918.456 31.071 C 917.986 31.832, 941.359 78.225, 992.226 177.500 C 1002.089 196.750, 1010.236 213.459, 1010.330 214.631 C 1010.496 216.708, 1007.026 220.686, 934.614 301.439 C 896.852 343.550, 891.860 349, 891.047 349 C 890.642 349, 891.358 343.037, 892.637 335.750 C 893.917 328.462, 895.432 319.350, 896.004 315.500 C 896.576 311.650, 897.243 307.825, 897.487 307 C 897.730 306.175, 898.827 300.325, 899.925 294 C 901.023 287.675, 902.638 278.450, 903.515 273.500 C 904.392 268.550, 906.005 259.325, 907.098 253 C 909.271 240.437, 909.858 237.141, 912.976 220 C 915.561 205.789, 918.809 187.314, 920.007 180 C 920.503 176.975, 921.856 169.325, 923.012 163 C 926.292 145.069, 927.034 140.904, 928 135 C 928.495 131.975, 929.395 126.800, 930 123.500 C 930.605 120.200, 931.545 114.800, 932.090 111.500 C 932.634 108.200, 933.534 103.025, 934.089 100 C 934.644 96.975, 935.189 93.375, 935.299 92 L 935.500 89.500 919.250 89.225 C 904.633 88.978, 903.001 88.777, 903.007 87.225 C 903.010 86.276, 903.907 80.325, 905 74 C 906.093 67.675, 906.990 61.938, 906.993 61.250 C 906.998 60.300, 903.037 60, 890.500 60 C 871.219 60, 872.934 61.860, 876.068 44.353 C 877.206 37.998, 877.893 32.163, 877.594 31.385 C 877.135 30.188, 867.901 29.979, 817.276 30.018 C 784.399 30.044, 756.982 30.388, 756.350 30.783 C 755.320 31.425, 753.295 43.292, 743.005 109 C 735.297 158.213, 733.650 168, 733.074 168 C 732.484 168, 720 137.128, 720 135.669 C 720 135.289, 719.151 133.071, 718.113 130.739 C 717.075 128.408, 714.788 122.675, 713.030 118 C 711.272 113.325, 709.001 107.475, 707.983 105 C 706.965 102.525, 705.368 98.369, 704.435 95.764 C 703.502 93.159, 702.214 90.593, 701.572 90.060 C 700.930 89.527, 696.827 88.958, 692.453 88.796 L 684.500 88.500 678.894 74.500 L 673.289 60.500 664.900 60.206 C 660.286 60.044, 656.060 59.460, 655.509 58.909 C 654.957 58.357, 652.205 51.973, 649.392 44.722 C 645.167 33.829, 643.863 31.421, 641.889 30.869 C 640.575 30.501, 613.149 30.155, 580.941 30.100 C 535.452 30.022, 522.042 30.279, 520.859 31.250 C 519.821 32.102, 517.846 41.089, 514.652 59.500 C 512.076 74.350, 507.937 97.975, 505.455 112 C 502.973 126.025, 499.360 146.500, 497.427 157.500 C 495.494 168.500, 492.823 183.575, 491.492 191 C 485.055 226.905, 469.064 317.546, 464.410 344.500 C 462.511 355.500, 460.756 365.063, 460.510 365.750 C 460.264 366.437, 458.924 367, 457.531 367 C 454.371 367, 454.336 365.998, 457 351.500 C 458.100 345.513, 459 340.026, 459 339.307 C 459 338.284, 455.418 338, 442.500 338 C 423.206 338, 424.823 339.672, 428 323 C 429.100 317.227, 430 311.716, 430 310.752 C 430 309.120, 427.864 309, 398.863 309 L 367.726 309 368.349 302.750 C 368.692 299.313, 369.411 294.250, 369.948 291.500 C 370.484 288.750, 372.306 278.625, 373.997 269 C 375.687 259.375, 377.483 249.250, 377.989 246.500 C 379.208 239.866, 382.840 218.905, 383.968 212 C 384.462 208.975, 385.819 201.325, 386.984 195 C 388.149 188.675, 390.001 178.325, 391.098 172 C 392.195 165.675, 393.496 158.250, 393.989 155.500 C 394.482 152.750, 395.588 146.450, 396.446 141.500 C 398.615 128.977, 401.902 110.467, 403.014 104.500 C 403.527 101.750, 404.242 97.138, 404.602 94.250 L 405.258 89 389.688 89 C 381.124 89, 373.929 88.662, 373.699 88.250 C 373.338 87.606, 375.033 76.702, 377.502 63.775 L 378.213 60.049 361.357 59.775 L 344.500 59.500 344.780 56.500 C 344.934 54.850, 345.975 48.667, 347.094 42.759 C 348.214 36.851, 348.864 31.589, 348.539 31.064 C 348.176 30.476, 324.222 30.079, 286.201 30.029 C 237.532 29.965, 224.117 30.218, 222.868 31.224 M 877.751 420.750 C 877.494 422.813, 877.447 424.689, 877.646 424.921 C 878.142 425.497, 882.965 420.905, 884.127 418.750 C 884.941 417.240, 884.600 417, 881.645 417 C 878.436 417, 878.189 417.237, 877.751 420.750" stroke="none" fill="#000000" fill-rule="evenodd"/><path d="M 253.750 30.749 C 270.388 30.903, 297.613 30.903, 314.250 30.749 C 330.888 30.596, 317.275 30.470, 284 30.470 C 250.725 30.470, 237.113 30.596, 253.750 30.749 M 551.250 30.749 C 567.612 30.904, 594.387 30.904, 610.750 30.749 C 627.112 30.595, 613.725 30.469, 581 30.469 C 548.275 30.469, 534.887 30.595, 551.250 30.749 M 789.322 30.750 C 805.723 30.904, 832.273 30.904, 848.322 30.749 C 864.370 30.595, 850.950 30.469, 818.500 30.469 C 786.050 30.469, 772.920 30.595, 789.322 30.750 M 960.750 30.750 C 979.038 30.902, 1008.962 30.902, 1027.250 30.750 C 1045.537 30.597, 1030.575 30.472, 994 30.472 C 957.425 30.472, 942.462 30.597, 960.750 30.750 M 1210.500 30.732 C 1280.827 31.422, 1334.766 31.430, 1334.346 30.750 C 1334.091 30.337, 1300.046 30.105, 1258.691 30.233 C 1217.336 30.362, 1195.650 30.586, 1210.500 30.732 M 902.288 88.500 C 902.288 91.250, 900.871 101.375, 899.140 111 C 897.409 120.625, 893.723 141.325, 890.949 157 C 888.176 172.675, 884.103 195.625, 881.900 208 C 879.696 220.375, 877.455 233.200, 876.920 236.500 C 876.385 239.800, 875.077 247.225, 874.013 253 C 872.949 258.775, 871.123 269.125, 869.954 276 C 867.672 289.431, 863.133 315.199, 860.619 329 C 852.046 376.065, 849.149 394, 850.122 394 C 850.543 394, 851.475 393.165, 852.193 392.146 C 852.912 391.126, 856.650 386.812, 860.500 382.561 C 864.350 378.309, 868.400 373.809, 869.500 372.561 C 876.997 364.052, 885.812 354.442, 887.500 352.936 C 891.879 349.030, 893.497 347.535, 892.571 348.250 C 890.400 349.927, 890.408 348.447, 892.637 335.750 C 893.917 328.462, 895.432 319.350, 896.004 315.500 C 896.576 311.650, 897.243 307.825, 897.487 307 C 897.730 306.175, 898.827 300.325, 899.925 294 C 901.023 287.675, 902.638 278.450, 903.515 273.500 C 904.392 268.550, 906.005 259.325, 907.098 253 C 909.271 240.437, 909.858 237.141, 912.976 220 C 915.561 205.789, 918.809 187.314, 920.007 180 C 920.503 176.975, 921.856 169.325, 923.012 163 C 926.292 145.069, 927.034 140.904, 928 135 C 928.495 131.975, 929.395 126.800, 930 123.500 C 930.605 120.200, 931.545 114.800, 932.090 111.500 C 932.634 108.200, 933.534 103.025, 934.089 100 C 934.644 96.975, 935.189 93.375, 935.299 92 L 935.500 89.500 919.314 89.226 L 903.128 88.951 902.709 86.226 C 902.478 84.726, 902.289 85.750, 902.288 88.500 M 683.030 86.597 C 683.014 87.200, 683.900 88.732, 685 90 C 686.100 91.268, 687 92.744, 687 93.279 C 687 93.814, 688.517 98.133, 690.371 102.876 C 692.224 107.619, 696.343 118.250, 699.522 126.500 C 702.702 134.750, 708.113 148.700, 711.546 157.500 C 714.979 166.300, 719.948 179.100, 722.587 185.944 C 728.088 200.209, 727.843 200.330, 730.607 182 C 731.478 176.225, 732.681 170.903, 733.281 170.174 C 734.038 169.253, 734.050 168.641, 733.321 168.174 C 732.372 167.565, 720 137.400, 720 135.694 C 720 135.300, 719.151 133.071, 718.113 130.739 C 717.075 128.408, 714.788 122.675, 713.030 118 C 711.272 113.325, 709.008 107.475, 707.998 105 C 706.988 102.525, 705.410 98.475, 704.492 96 C 701.970 89.204, 701.633 89, 692.927 89 C 686.527 89, 684.913 88.681, 684.080 87.250 C 683.519 86.287, 683.047 85.994, 683.030 86.597 M 372.999 90.619 C 373 92.925, 370.567 107.781, 369.005 115 C 368.469 117.475, 367.113 125.125, 365.990 132 C 364.868 138.875, 363.518 146.750, 362.991 149.500 C 362.465 152.250, 361.330 158.550, 360.469 163.500 C 359.609 168.450, 357.564 180.150, 355.924 189.500 C 354.284 198.850, 351.568 214.375, 349.888 224 C 348.208 233.625, 346.465 243.525, 346.013 246 C 345.562 248.475, 343.789 258.600, 342.073 268.500 C 338.032 291.821, 336.051 302.969, 335.461 305.703 C 334.988 307.895, 335.072 307.908, 351.377 308.203 L 367.769 308.500 368.371 302.500 C 368.702 299.200, 369.411 294.250, 369.948 291.500 C 370.484 288.750, 372.306 278.625, 373.997 269 C 375.687 259.375, 377.483 249.250, 377.989 246.500 C 379.208 239.866, 382.840 218.905, 383.968 212 C 384.462 208.975, 385.819 201.325, 386.984 195 C 388.149 188.675, 390.001 178.325, 391.098 172 C 392.195 165.675, 393.496 158.250, 393.989 155.500 C 394.482 152.750, 395.588 146.450, 396.446 141.500 C 398.615 128.977, 401.902 110.467, 403.014 104.500 C 403.527 101.750, 404.239 97.160, 404.596 94.299 L 405.245 89.098 389.121 88.799 C 373.268 88.505, 372.997 88.536, 372.999 90.619 M 1102.728 89.793 C 1103.702 90.504, 1104.392 91.404, 1104.261 91.793 C 1104.025 92.490, 1108.857 104.754, 1111.594 110.404 C 1112.367 112.001, 1113 113.887, 1113 114.595 C 1113 117.555, 1114.865 116.566, 1118.809 111.516 C 1121.114 108.565, 1123 105.640, 1123 105.016 C 1123 104.392, 1123.450 104.160, 1124 104.500 C 1124.550 104.840, 1125 104.871, 1125 104.570 C 1125 103.845, 1119.798 90.644, 1119.259 90 C 1119.028 89.725, 1114.816 89.275, 1109.898 89 C 1102.421 88.582, 1101.246 88.712, 1102.728 89.793 M 1336.372 91.173 C 1335.342 92.643, 1329.813 98.943, 1324.085 105.173 C 1310.368 120.091, 1306.496 124.316, 1294 138.001 C 1288.225 144.325, 1282.825 150.176, 1282 151.002 C 1281.175 151.828, 1277.125 156.322, 1273 160.989 C 1268.875 165.656, 1264.599 170.380, 1263.497 171.487 C 1262.396 172.594, 1257.447 178, 1252.499 183.500 C 1247.551 189, 1243.277 193.725, 1243.001 194 C 1242.726 194.275, 1238.676 198.775, 1234.002 204 C 1229.328 209.225, 1224.819 214.175, 1223.980 215 C 1223.142 215.825, 1217.755 221.675, 1212.009 228 C 1206.263 234.325, 1200.985 240.095, 1200.281 240.821 C 1199.576 241.548, 1199 242.688, 1199 243.354 C 1199 244.524, 1209.111 264.818, 1225.730 297 C 1230.132 305.525, 1241.066 326.900, 1250.028 344.500 C 1258.990 362.100, 1271.723 387.075, 1278.324 400 C 1299.861 442.169, 1301.182 444.897, 1300.554 445.912 C 1300.148 446.570, 1277.922 446.844, 1236.052 446.708 C 1193.618 446.570, 1172.408 446.836, 1172.880 447.500 C 1173.270 448.050, 1175.074 452.100, 1176.888 456.500 C 1178.703 460.900, 1180.918 466.253, 1181.812 468.397 C 1184.779 475.514, 1178.920 475, 1257.012 475 C 1298.494 475, 1328.115 474.623, 1328.444 474.090 C 1328.964 473.250, 1324.052 463.314, 1300.387 417.330 C 1295.527 407.886, 1291.132 400.418, 1290.621 400.734 C 1290.109 401.050, 1290.004 400.803, 1290.386 400.185 C 1291.044 399.120, 1286.537 389.975, 1255.057 328.500 C 1228.173 276.002, 1226.816 273.143, 1227.636 270.743 C 1228.057 269.509, 1228.444 268.050, 1228.496 267.500 C 1228.548 266.950, 1229.077 266.594, 1229.670 266.708 C 1230.264 266.823, 1234.518 262.788, 1239.125 257.742 C 1249.629 246.235, 1256.618 238.635, 1261.419 233.500 C 1268.898 225.502, 1272.934 220.265, 1272.225 219.481 C 1271.826 219.040, 1271.994 218.961, 1272.597 219.304 C 1273.811 219.996, 1282.663 210.355, 1282.225 208.817 C 1282.074 208.286, 1282.366 208.108, 1282.875 208.423 C 1283.383 208.737, 1286.654 205.733, 1290.142 201.747 C 1293.631 197.761, 1297.317 193.736, 1298.334 192.803 C 1299.388 191.836, 1299.863 190.587, 1299.437 189.899 C 1299.002 189.194, 1299.111 188.951, 1299.700 189.315 C 1300.998 190.117, 1305.265 185.624, 1304.259 184.515 C 1303.842 184.056, 1304.034 183.985, 1304.687 184.360 C 1305.959 185.089, 1312.702 177.426, 1312.225 175.793 C 1312.074 175.275, 1312.342 175.093, 1312.820 175.389 C 1313.298 175.684, 1315.627 173.805, 1317.994 171.213 C 1320.362 168.621, 1324.508 164.137, 1327.208 161.248 C 1330.063 158.194, 1331.818 155.515, 1331.404 154.844 C 1330.999 154.189, 1331.127 153.961, 1331.700 154.315 C 1332.998 155.117, 1337.265 150.624, 1336.259 149.515 C 1335.842 149.056, 1336.012 148.972, 1336.637 149.329 C 1338.014 150.115, 1340.416 147.482, 1339.570 146.113 C 1339.238 145.577, 1339.494 144.813, 1340.138 144.415 C 1340.869 143.963, 1341.041 144.124, 1340.595 144.845 C 1339.643 146.387, 1340.840 146.321, 1342.321 144.750 C 1348.886 137.788, 1352.876 132.608, 1352.341 131.742 C 1351.983 131.164, 1352.160 130.981, 1352.732 131.334 C 1354.028 132.135, 1356.256 129.617, 1355.241 128.498 C 1354.834 128.048, 1355.010 127.971, 1355.634 128.327 C 1357.037 129.128, 1363.192 122.120, 1362.322 120.712 C 1361.975 120.150, 1362.145 119.972, 1362.700 120.315 C 1363.255 120.658, 1367.712 116.609, 1372.604 111.318 C 1385.009 97.902, 1385.033 97.872, 1384.319 96.621 C 1383.967 96.004, 1384.056 95.842, 1384.515 96.259 C 1384.975 96.677, 1386.398 96.036, 1387.676 94.835 C 1390.076 92.580, 1390.887 90.334, 1388.845 91.595 C 1388.146 92.028, 1387.962 91.871, 1388.378 91.198 C 1388.755 90.587, 1389.725 90.341, 1390.532 90.651 C 1391.339 90.960, 1392 90.730, 1392 90.138 C 1392 89.405, 1383.459 88.973, 1365.122 88.781 L 1338.244 88.500 1336.372 91.173 M 628.172 294.121 C 627.497 298.729, 626.506 305.200, 625.969 308.500 C 625.432 311.800, 624.554 317.425, 624.018 321 C 623.163 326.697, 621.207 339.171, 617.982 359.500 C 617.459 362.800, 616.101 371.575, 614.964 379 C 613.828 386.425, 612.439 395.425, 611.878 399 C 609.619 413.390, 609.057 417.057, 607.054 430.500 C 605.507 440.882, 604.519 444.838, 603.234 445.806 C 601.854 446.846, 592.622 447.050, 558 446.806 L 514.500 446.500 514.260 450 C 514.127 451.925, 513.548 455.525, 512.972 458 C 512.396 460.475, 511.830 465.200, 511.713 468.500 L 511.500 474.500 571 474.739 C 603.725 474.871, 631.023 474.643, 631.663 474.234 C 632.302 473.825, 633.314 470.117, 633.911 465.995 C 634.507 461.873, 635.430 455.800, 635.961 452.500 C 636.492 449.200, 637.860 440.425, 639 433 C 640.140 425.575, 641.475 417.025, 641.965 414 C 642.456 410.975, 643.371 405.125, 644 401 C 645.271 392.661, 646.612 384.287, 648.003 376 C 648.511 372.975, 649.403 367.125, 649.987 363 C 652.158 347.639, 652.626 345.502, 653.766 345.736 C 654.422 345.871, 654.102 344.584, 653.020 342.736 C 651.977 340.956, 648.177 332.075, 644.577 323 C 640.977 313.925, 637.574 305.719, 637.015 304.764 C 636.457 303.809, 636 302.566, 636 302.003 C 636 301.439, 635.063 298.846, 633.917 296.239 C 632.772 293.633, 631.287 290.204, 630.617 288.621 C 629.462 285.891, 629.335 286.178, 628.172 294.121 M 1080.808 364.931 C 1072.939 374.819, 1065.375 384.376, 1064 386.170 C 1062.625 387.965, 1060.819 390.129, 1059.986 390.980 C 1059.154 391.831, 1057.360 394.096, 1056.001 396.014 C 1052.876 400.420, 1052.336 401.111, 1045.847 409 C 1042.906 412.575, 1039.264 417.075, 1037.752 419 C 1036.241 420.925, 1032.288 425.875, 1028.967 430 C 1025.646 434.125, 1021.520 439.396, 1019.798 441.714 C 1017.262 445.125, 1015.889 446.042, 1012.583 446.531 C 1006.835 447.380, 917.038 446.526, 914 445.594 C 912.266 445.062, 911.924 445.126, 912.883 445.804 C 914.658 447.060, 914.046 447.944, 903.327 459.607 C 893.198 470.629, 890.891 473.557, 891.699 474.366 C 892.048 474.715, 926.418 475, 968.078 475 L 1043.822 475 1046.418 471.915 C 1047.845 470.219, 1048.752 468.408, 1048.432 467.891 C 1048.113 467.373, 1048.447 467.074, 1049.176 467.225 C 1049.908 467.377, 1050.439 466.723, 1050.363 465.761 C 1050.288 464.804, 1050.599 464.252, 1051.055 464.534 C 1051.510 464.815, 1054.722 461.513, 1058.192 457.195 C 1067.702 445.358, 1069.513 442.789, 1069.363 441.343 C 1069.288 440.616, 1069.560 440.228, 1069.968 440.480 C 1070.927 441.073, 1073.119 438.645, 1082.394 426.719 C 1089.921 417.039, 1091.087 415.210, 1088.845 416.595 C 1088.146 417.028, 1087.962 416.871, 1088.378 416.198 C 1088.755 415.587, 1089.613 415.298, 1090.284 415.556 C 1090.955 415.813, 1092.123 415.033, 1092.879 413.823 C 1093.635 412.612, 1098.479 406.357, 1103.644 399.922 C 1113.951 387.083, 1113.512 388.595, 1109.558 379.515 C 1108.835 377.857, 1105.958 371.253, 1103.164 364.839 C 1100.369 358.425, 1097.789 352.009, 1097.431 350.580 C 1097.072 349.150, 1096.404 347.750, 1095.947 347.467 C 1095.490 347.185, 1088.678 355.044, 1080.808 364.931 M 454.136 366.886 C 453.977 372.001, 450.368 395.889, 448.982 401 C 448.460 402.925, 447.108 410.350, 445.978 417.500 C 443.566 432.767, 441.108 445.225, 440.362 445.971 C 440.071 446.262, 389.491 446.500, 327.962 446.500 L 216.091 446.500 215.450 449 C 214.168 454.001, 211.322 473.989, 211.821 474.487 C 212.680 475.346, 465.409 475.027, 466.766 474.166 C 467.463 473.724, 468.889 468.668, 469.936 462.931 C 473.274 444.642, 478 418.236, 478.002 417.862 C 478.003 417.663, 472.314 417.639, 465.361 417.809 C 458.408 417.979, 452.352 417.752, 451.905 417.305 C 451.458 416.858, 451.978 411.319, 453.060 404.996 C 454.143 398.673, 455.500 390.436, 456.075 386.691 C 456.650 382.946, 457.890 376.851, 458.830 373.148 L 460.541 366.414 457.853 366.808 C 455.674 367.128, 455.081 366.758, 454.719 364.851 C 454.465 363.517, 454.213 364.396, 454.136 366.886 M 859.250 417.777 C 851.413 417.930, 845 418.207, 845 418.394 C 845 421.746, 839.635 445.607, 838.760 446.148 C 838.091 446.562, 813.160 446.810, 783.357 446.700 C 747.327 446.567, 729.446 446.835, 729.994 447.500 C 730.446 448.050, 732.029 451.650, 733.511 455.500 C 734.993 459.350, 737.500 465.313, 739.081 468.750 L 741.957 475 804.443 475 C 875.434 475, 868.293 475.995, 869.576 465.923 C 870.447 459.087, 872.610 448.440, 873.381 447.193 C 873.737 446.617, 871.622 446.433, 867.990 446.723 C 860.768 447.301, 859.475 445.744, 863.543 441.368 C 865.010 439.791, 868.296 436.137, 870.846 433.250 C 873.397 430.363, 875.937 428, 876.491 428 C 877.585 427.999, 886 418.605, 886 417.384 C 886 416.975, 884.390 418.521, 882.422 420.820 C 880.454 423.119, 878.472 425, 878.017 425 C 877.562 425, 877.417 423.313, 877.693 421.250 C 878.151 417.839, 877.984 417.500, 875.848 417.500 C 874.557 417.500, 867.087 417.625, 859.250 417.777" stroke="none" fill="#009afb" fill-rule="evenodd"/><path d="M 873.104 61 C 873.073 61.825, 872.655 64.750, 872.175 67.500 C 871.694 70.250, 870.555 77, 869.643 82.500 C 868.731 88, 867.129 96.775, 866.084 102 C 865.038 107.225, 863.659 114.650, 863.019 118.500 C 862.380 122.350, 861.414 127.975, 860.872 131 C 859.535 138.475, 858.355 145.252, 857.042 153 C 856.436 156.575, 854.594 166.925, 852.947 176 C 851.301 185.075, 849.524 195.200, 848.999 198.500 C 848.475 201.800, 846.652 212.150, 844.949 221.500 C 843.246 230.850, 841.422 241.200, 840.897 244.500 C 840.372 247.800, 839.542 252.525, 839.053 255 C 838.564 257.475, 837.694 262.200, 837.120 265.500 C 834.362 281.351, 831.800 295.777, 829.394 309 C 827.942 316.975, 826.378 325.975, 825.917 329 C 825.059 334.643, 824.616 337.177, 821.024 357 C 819.877 363.325, 817.580 376.375, 815.918 386 C 814.256 395.625, 812.506 405.750, 812.028 408.500 C 810.341 418.211, 817.829 417.227, 748.608 416.841 C 714.999 416.653, 690.614 416.725, 694.419 417 L 701.339 417.500 706.794 431.191 C 709.795 438.721, 712.981 445.214, 713.875 445.620 C 716.105 446.632, 837.194 447.190, 838.738 446.195 C 839.419 445.756, 841.109 439.379, 842.495 432.024 C 843.881 424.669, 845.147 418.520, 845.308 418.359 C 845.469 418.198, 852.778 418.002, 861.550 417.923 C 873.286 417.818, 876.840 417.517, 875 416.782 C 873.455 416.165, 864.967 416.001, 852.784 416.352 C 840.933 416.694, 832.838 416.547, 832.490 415.983 C 831.841 414.934, 834.997 411.220, 846 400.087 C 850.125 395.913, 856.875 388.679, 861 384.012 C 865.125 379.344, 870.750 373.056, 873.500 370.039 C 876.250 367.021, 880.525 362.316, 883 359.581 C 885.475 356.847, 888.492 353.573, 889.705 352.305 C 890.917 351.037, 891.536 350, 891.080 350 C 890.625 350, 888.283 352.090, 885.876 354.644 C 876.135 364.982, 873.304 368.074, 869 373.075 C 866.525 375.952, 862.560 380.374, 860.189 382.903 C 857.818 385.431, 854.727 388.962, 853.320 390.750 C 851.913 392.537, 850.447 394, 850.060 394 C 849.148 394, 852.193 375.258, 860.619 329 C 863.133 315.199, 867.672 289.431, 869.954 276 C 871.123 269.125, 872.949 258.775, 874.013 253 C 875.077 247.225, 876.385 239.800, 876.920 236.500 C 877.455 233.200, 879.696 220.375, 881.900 208 C 885.513 187.707, 889.998 162.395, 899.087 111 C 900.790 101.375, 902.319 91.025, 902.486 88 C 902.654 84.975, 903.677 77.625, 904.759 71.666 C 906.149 64.017, 906.400 60.717, 905.614 60.439 C 905.001 60.222, 897.448 59.922, 888.830 59.772 C 875.466 59.540, 873.151 59.721, 873.104 61 M 1073.225 60.500 C 1073.926 61.050, 1074.526 61.950, 1074.557 62.500 C 1074.589 63.050, 1075.103 64.625, 1075.701 66 C 1076.299 67.375, 1078.673 73.225, 1080.976 79 C 1083.279 84.775, 1085.741 90.850, 1086.446 92.500 C 1087.151 94.150, 1088.448 97.300, 1089.328 99.500 C 1090.207 101.700, 1092.969 108.358, 1095.464 114.295 C 1097.959 120.232, 1100 125.744, 1100 126.545 C 1100 127.345, 1100.398 128, 1100.883 128 C 1101.369 128, 1102.029 129.002, 1102.349 130.227 C 1102.889 132.290, 1103.172 132.133, 1106.216 128.081 C 1108.022 125.676, 1110.835 122.311, 1112.467 120.604 C 1116.696 116.180, 1128.693 101.150, 1126.318 103.252 C 1125.229 104.216, 1124.037 104.703, 1123.669 104.336 C 1123.301 103.968, 1123 104.226, 1123 104.909 C 1123 105.592, 1121.114 108.565, 1118.809 111.516 C 1114.865 116.566, 1113 117.555, 1113 114.595 C 1113 113.887, 1112.367 112.001, 1111.594 110.404 C 1108.833 104.705, 1103.847 92.058, 1104.170 91.576 C 1104.352 91.307, 1103.771 90.504, 1102.879 89.793 C 1101.988 89.082, 1099.107 83.100, 1096.477 76.500 C 1093.848 69.900, 1091.256 63.518, 1090.719 62.318 C 1089.837 60.350, 1088.864 60.104, 1080.845 59.818 C 1074.784 59.601, 1072.356 59.819, 1073.225 60.500 M 343.999 60.726 C 343.998 61.152, 343.309 65.325, 342.467 70 C 340.629 80.207, 338.467 92.959, 336.956 102.500 C 336.346 106.350, 335.438 111.300, 334.938 113.500 C 333.364 120.426, 330.848 134.263, 330.029 140.500 C 329.259 146.361, 327.868 154.235, 324.024 174.500 C 322.981 180, 321.611 187.650, 320.980 191.500 C 320.349 195.350, 319.162 202.100, 318.342 206.500 C 317.522 210.900, 315.526 222.150, 313.905 231.500 C 312.284 240.850, 310.043 253.675, 308.926 260 C 307.808 266.325, 306.499 273.975, 306.016 277 C 305.533 280.025, 304.473 286.100, 303.659 290.500 C 302.846 294.900, 301.931 300.582, 301.626 303.128 L 301.072 307.755 333.586 308.494 C 351.469 308.901, 366.378 308.956, 366.717 308.617 C 367.056 308.277, 360.050 308, 351.148 308 L 334.962 308 335.449 305.750 C 336.048 302.982, 337.997 292.022, 342.073 268.500 C 343.789 258.600, 345.562 248.475, 346.013 246 C 346.465 243.525, 348.208 233.625, 349.888 224 C 351.568 214.375, 354.284 198.850, 355.924 189.500 C 357.564 180.150, 359.609 168.450, 360.469 163.500 C 361.330 158.550, 362.465 152.250, 362.991 149.500 C 363.518 146.750, 364.864 138.875, 365.983 132 C 367.102 125.125, 368.427 117.700, 368.929 115.500 C 369.430 113.300, 370.560 106.550, 371.438 100.500 C 373.930 83.335, 376.942 63.226, 377.234 61.797 C 377.442 60.784, 373.832 60.440, 360.750 60.226 C 351.538 60.075, 343.999 60.300, 343.999 60.726 M 656.432 61.211 C 656.578 61.920, 657.034 63.400, 657.444 64.500 C 657.854 65.600, 659.091 68.975, 660.192 72 C 662.908 79.458, 664.328 83.127, 666.773 89 C 667.346 90.375, 670.148 97.575, 673 105 C 675.852 112.425, 678.571 119.400, 679.043 120.500 C 679.514 121.600, 681.763 127.450, 684.041 133.500 C 686.319 139.550, 688.771 145.850, 689.489 147.500 C 690.862 150.653, 694.024 158.784, 698.436 170.500 C 699.885 174.350, 701.730 178.978, 702.536 180.784 C 703.341 182.590, 704 184.507, 704 185.045 C 704 185.582, 704.844 187.929, 705.875 190.261 C 709.183 197.738, 712 205.230, 712 206.550 C 712 207.256, 712.339 207.983, 712.754 208.167 C 713.169 208.350, 714.588 211.650, 715.907 215.500 C 717.226 219.350, 718.625 222.950, 719.015 223.500 C 719.405 224.050, 720.020 225.737, 720.381 227.250 C 720.742 228.762, 721.639 230, 722.374 230 C 723.303 230, 724.090 227.179, 724.957 220.750 C 725.642 215.662, 727.042 208.125, 728.067 204 C 729.091 199.875, 730.629 191.775, 731.483 186 C 732.338 180.225, 733.301 174.150, 733.624 172.500 C 734.022 170.466, 733.882 169.822, 733.189 170.500 C 732.628 171.050, 731.461 176.225, 730.596 182 C 727.851 200.328, 728.088 200.211, 722.590 185.944 C 717.029 171.514, 715.346 167.191, 705.284 141.500 C 701.192 131.050, 696.576 119.125, 695.027 115 C 693.478 110.875, 690.810 103.765, 689.097 99.199 C 687.385 94.634, 685.492 90.359, 684.891 89.699 C 684.290 89.040, 681.257 82.200, 678.149 74.500 L 672.500 60.500 664.333 60.211 C 658.080 59.990, 656.228 60.224, 656.432 61.211 M 1305 64.178 C 1300.624 69.223, 1298.582 71.496, 1288 83.102 C 1283.325 88.230, 1276.617 95.592, 1273.093 99.462 C 1269.569 103.333, 1266.194 106.950, 1265.593 107.500 C 1264.992 108.050, 1261.575 111.846, 1258 115.936 C 1254.425 120.026, 1250.600 124.308, 1249.500 125.451 C 1248.400 126.594, 1243.675 131.750, 1239 136.910 C 1234.325 142.069, 1228.925 147.973, 1227 150.030 C 1225.075 152.087, 1220.666 156.927, 1217.203 160.786 C 1213.740 164.645, 1209.690 169.103, 1208.203 170.693 C 1206.716 172.283, 1203.301 176.040, 1200.614 179.042 C 1192.450 188.164, 1179.775 202.061, 1174.750 207.402 C 1172.138 210.178, 1170.008 213.361, 1170.018 214.475 C 1170.036 216.497, 1172.625 221.810, 1191.955 259.500 C 1197.596 270.500, 1204.939 284.900, 1208.272 291.500 C 1211.604 298.100, 1214.707 303.650, 1215.166 303.833 C 1215.625 304.017, 1216 304.847, 1216 305.679 C 1216 306.511, 1216.821 308.386, 1217.825 309.846 C 1218.829 311.306, 1220.266 314.075, 1221.019 316 C 1221.771 317.925, 1222.640 319.725, 1222.949 320 C 1224.066 320.992, 1230 333.313, 1230 334.640 C 1230 335.388, 1230.450 336, 1231 336 C 1231.550 336, 1232 336.718, 1232 337.596 C 1232 338.473, 1232.837 340.386, 1233.860 341.846 C 1234.882 343.306, 1240.795 354.625, 1246.999 367 C 1253.203 379.375, 1260.033 392.796, 1262.177 396.825 C 1267.789 407.367, 1267.683 407.158, 1269.416 411.151 C 1270.287 413.159, 1271 415.297, 1271 415.901 C 1271 416.688, 1252.946 417, 1207.393 417 C 1156.910 417, 1143.888 417.258, 1144.282 418.250 C 1148.375 428.568, 1150.498 432.810, 1151.315 432.305 C 1151.884 431.954, 1151.995 432.200, 1151.574 432.881 C 1151.169 433.535, 1151.809 436.417, 1152.997 439.285 L 1155.155 444.500 1161.828 444.179 C 1166.471 443.955, 1169.412 444.334, 1171.500 445.424 C 1174.134 446.799, 1182.153 446.984, 1237.228 446.935 C 1277.272 446.899, 1300.177 446.523, 1300.566 445.894 C 1301.182 444.897, 1299.840 442.128, 1278.324 400 C 1271.723 387.075, 1258.990 362.100, 1250.028 344.500 C 1241.066 326.900, 1230.132 305.525, 1225.730 297 C 1209.111 264.818, 1199 244.524, 1199 243.354 C 1199 242.688, 1199.576 241.548, 1200.281 240.821 C 1200.985 240.095, 1206.263 234.325, 1212.009 228 C 1217.755 221.675, 1223.142 215.825, 1223.980 215 C 1224.819 214.175, 1229.328 209.225, 1234.002 204 C 1238.676 198.775, 1242.726 194.275, 1243.001 194 C 1243.277 193.725, 1247.551 189, 1252.499 183.500 C 1257.447 178, 1262.396 172.594, 1263.497 171.487 C 1264.599 170.380, 1268.875 165.656, 1273 160.989 C 1277.125 156.322, 1281.175 151.828, 1282 151.002 C 1282.825 150.176, 1288.225 144.325, 1294 138.001 C 1299.775 131.677, 1306.563 124.252, 1309.085 121.501 C 1329.717 98.997, 1335.150 92.850, 1339.650 86.920 C 1342.483 83.188, 1344.733 79.991, 1344.650 79.817 C 1344.568 79.643, 1344.694 79.619, 1344.931 79.764 C 1345.724 80.250, 1351 74.643, 1351 73.313 C 1351 72.591, 1351.477 72, 1352.059 72 C 1352.641 72, 1352.833 71.539, 1352.485 70.975 C 1352.136 70.412, 1352.447 70.074, 1353.176 70.225 C 1353.909 70.377, 1354.351 69.830, 1354.167 69 C 1353.983 68.175, 1354.175 67.842, 1354.592 68.259 C 1355.513 69.179, 1360 65.154, 1360 63.409 C 1360 62.726, 1359.438 61.899, 1358.750 61.572 C 1358.063 61.245, 1358.512 61.166, 1359.749 61.395 C 1360.986 61.624, 1362.250 61.404, 1362.558 60.906 C 1362.888 60.372, 1351.894 60.029, 1335.809 60.072 L 1308.500 60.143 1305 64.178 M 603.576 235.266 C 601.309 247.833, 600.439 253.180, 598.006 269.500 C 596.858 277.200, 595.061 288.675, 594.013 295 C 592.965 301.325, 591.154 313.025, 589.989 321 C 588.824 328.975, 587.488 337.525, 587.020 340 C 586.553 342.475, 585.703 347.650, 585.131 351.500 C 584.559 355.350, 583.395 362.775, 582.544 368 C 581.249 375.947, 577.277 401.380, 575.388 413.819 L 574.884 417.138 526.692 416.819 C 500.186 416.643, 480.243 416.643, 482.373 416.818 C 486.813 417.182, 486.714 415.569, 483.452 434.322 C 482.184 441.614, 482.034 444.434, 482.872 445.272 C 483.709 446.109, 484.309 446.091, 485.200 445.200 C 485.860 444.540, 487.323 444.045, 488.450 444.100 C 490.175 444.184, 490.104 444.313, 488 444.914 C 484.693 445.860, 529.220 447, 569.471 447 C 593.629 447, 602.034 446.689, 603.293 445.750 C 604.507 444.844, 605.541 440.652, 607.053 430.500 C 609.314 415.328, 610.650 406.584, 612.020 398 C 612.503 394.975, 613.828 386.425, 614.964 379 C 616.100 371.575, 617.458 362.800, 617.981 359.500 C 618.503 356.200, 619.894 347.425, 621.070 340 C 622.246 332.575, 623.573 324.025, 624.019 321 C 624.465 317.975, 625.375 312.125, 626.041 308 C 626.708 303.875, 627.766 297.125, 628.393 293 L 629.532 285.500 630.885 289 C 631.628 290.925, 633.083 294.408, 634.118 296.739 C 635.153 299.071, 636 301.364, 636 301.835 C 636 302.307, 636.633 303.999, 637.406 305.596 C 638.180 307.193, 641.392 315.025, 644.545 323 C 650.354 337.693, 653.662 345, 654.504 345 C 654.955 345, 654.420 343.641, 650.081 333.761 C 648.937 331.154, 648 328.636, 648 328.165 C 648 327.693, 647.367 326.001, 646.593 324.404 C 645.820 322.807, 641.699 312.725, 637.436 302 C 633.172 291.275, 628.889 281.083, 627.916 279.352 C 626.944 277.620, 625.459 274.245, 624.616 271.852 C 622.237 265.096, 617.915 254.372, 614.100 245.761 C 612.945 243.154, 612 240.432, 612 239.711 C 612 238.990, 611.609 237.972, 611.131 237.450 C 610.654 236.928, 609.462 234.348, 608.483 231.717 C 607.504 229.087, 606.375 226.731, 605.973 226.483 C 605.571 226.235, 604.492 230.187, 603.576 235.266 M 1071.410 310.230 C 1068.710 313.657, 1063.931 319.794, 1060.792 323.869 C 1057.653 327.943, 1054.053 332.458, 1052.792 333.902 C 1051.531 335.346, 1049.269 338.170, 1047.765 340.177 C 1046.261 342.185, 1044.461 344.439, 1043.765 345.188 C 1043.069 345.937, 1040.931 348.563, 1039.014 351.025 C 1037.096 353.486, 1034.987 356.175, 1034.327 357 C 1022.132 372.231, 1019.428 375.578, 1018.980 376 C 1018.688 376.275, 1016.907 378.525, 1015.023 381 C 1008.155 390.023, 987.565 415.521, 986.547 416.263 C 985.971 416.683, 962.100 416.908, 933.500 416.763 C 904.900 416.618, 882.513 416.644, 883.750 416.820 C 884.987 416.995, 886 417.362, 886 417.634 C 886 418.677, 877.449 427.999, 876.491 428 C 875.937 428, 873.397 430.363, 870.846 433.250 C 868.296 436.137, 865.010 439.791, 863.543 441.368 C 859.455 445.765, 860.762 447.301, 868.093 446.715 C 871.436 446.448, 874.672 445.728, 875.285 445.115 C 875.898 444.502, 877.322 444.045, 878.450 444.100 C 880.218 444.186, 880.156 444.314, 878 445.034 C 876.467 445.546, 883.236 445.938, 895.500 446.049 C 906.500 446.148, 936.425 446.432, 962 446.681 C 987.575 446.930, 1010.337 446.862, 1012.583 446.531 C 1015.889 446.042, 1017.262 445.125, 1019.798 441.714 C 1021.520 439.396, 1025.646 434.125, 1028.967 430 C 1032.288 425.875, 1036.241 420.925, 1037.752 419 C 1039.264 417.075, 1042.906 412.575, 1045.847 409 C 1052.336 401.111, 1052.876 400.420, 1056.001 396.014 C 1057.360 394.096, 1059.154 391.831, 1059.986 390.980 C 1060.819 390.129, 1062.625 387.965, 1064 386.170 C 1077.056 369.135, 1095.281 347.056, 1095.947 347.467 C 1096.404 347.750, 1097.072 349.150, 1097.431 350.580 C 1097.987 352.797, 1102.489 363.494, 1110.123 380.739 C 1111.156 383.071, 1112 385.378, 1112 385.867 C 1112 386.355, 1112.647 387.292, 1113.437 387.948 C 1114.663 388.965, 1111.345 380.059, 1106.564 369.500 C 1105.816 367.850, 1103.961 363.350, 1102.441 359.500 C 1100.920 355.650, 1097.049 347.108, 1093.838 340.518 C 1090.627 333.929, 1088 328.009, 1088 327.363 C 1088 326.717, 1087.142 324.459, 1086.094 322.345 C 1084.180 318.485, 1082.516 314.719, 1079.646 307.750 C 1078.797 305.688, 1077.701 304, 1077.211 304 C 1076.722 304, 1074.111 306.804, 1071.410 310.230 M 423.605 348.750 C 422.660 354.663, 421.500 361.075, 421.026 363 C 420.553 364.925, 419.665 369.650, 419.052 373.500 C 418.440 377.350, 417.476 382.975, 416.910 386 C 415.523 393.406, 414.332 400.016, 412.764 409 L 411.455 416.500 298.047 416.500 C 235.672 416.500, 185.395 416.645, 186.319 416.823 C 188.573 417.257, 188.673 416.010, 184.645 437.735 C 183.908 441.715, 183.536 445.202, 183.819 445.485 C 184.102 445.768, 189.771 445.916, 196.417 445.814 L 208.500 445.627 200 445 L 191.500 444.373 202.500 444.286 C 209.520 444.231, 212.595 444.498, 211 445.024 C 208.661 445.796, 208.726 445.863, 212 446.056 C 220.623 446.565, 439.895 446.438, 440.409 445.924 C 441.252 445.081, 442.295 439.564, 450.505 392.500 C 451.273 388.100, 452.425 380.225, 453.065 375 C 453.706 369.775, 455.253 359.650, 456.503 352.500 C 457.753 345.350, 458.575 339.163, 458.329 338.750 C 458.083 338.337, 450.556 338, 441.603 338 L 425.323 338 423.605 348.750 M 457.532 378.833 C 456.581 383.731, 455.975 388.584, 456.186 389.619 C 456.397 390.653, 457.355 386.826, 458.315 381.114 C 459.275 375.401, 459.881 370.547, 459.661 370.328 C 459.442 370.108, 458.484 373.936, 457.532 378.833 M 454.635 395 C 452.140 409.050, 451.128 416.398, 451.585 417.138 C 451.878 417.612, 457.743 418, 464.618 418 C 472.697 418, 476.899 417.646, 476.500 417 C 476.146 416.428, 470.990 416, 464.441 416 C 451.120 416, 452.009 417.201, 454.554 402.652 C 455.405 397.786, 455.911 393.286, 455.679 392.652 C 455.446 392.019, 454.977 393.075, 454.635 395" stroke="none" fill="#38d2ff" fill-rule="evenodd"/><path d="M 222 31.584 C 222 32.110, 216.840 61.737, 212 89 C 210.975 94.775, 208.498 108.725, 206.495 120 C 204.493 131.275, 201.798 146.575, 200.508 154 C 197.708 170.103, 193.497 193.984, 188.518 222 C 186.514 233.275, 183.778 248.800, 182.438 256.500 C 181.098 264.200, 178.919 276.575, 177.596 284 C 174.275 302.633, 170.031 326.711, 159.971 384 C 158.377 393.075, 156.451 403.966, 155.689 408.202 C 154.576 414.397, 154.554 415.999, 155.576 416.391 C 156.276 416.659, 214.134 416.794, 284.151 416.689 L 411.455 416.500 412.764 409 C 414.009 401.866, 414.761 397.706, 416.970 385.750 C 417.503 382.863, 418.440 377.350, 419.052 373.500 C 419.665 369.650, 420.557 364.925, 421.036 363 C 421.515 361.075, 422.655 354.325, 423.570 348 C 424.484 341.675, 426.249 330.650, 427.491 323.500 C 428.733 316.350, 429.554 310.162, 429.316 309.750 C 429.077 309.337, 411.246 308.999, 389.691 308.998 C 368.136 308.997, 339.381 308.700, 325.791 308.339 L 301.082 307.682 301.631 303.091 C 301.933 300.566, 302.846 294.900, 303.659 290.500 C 304.473 286.100, 305.533 280.025, 306.016 277 C 306.499 273.975, 307.808 266.325, 308.926 260 C 310.043 253.675, 312.284 240.850, 313.905 231.500 C 315.526 222.150, 317.522 210.900, 318.342 206.500 C 319.162 202.100, 320.349 195.350, 320.980 191.500 C 321.611 187.650, 322.981 180, 324.024 174.500 C 327.849 154.336, 329.258 146.369, 330.037 140.500 C 330.475 137.200, 331.821 129.550, 333.028 123.500 C 335.330 111.966, 336.042 107.995, 337.869 96.500 C 338.481 92.650, 339.382 87.250, 339.872 84.500 C 340.361 81.750, 341.523 74.775, 342.452 69 C 346.716 42.512, 348 34.086, 348 32.600 C 348 31.150, 342.091 31, 285 31 C 250.350 31, 222 31.263, 222 31.584 M 518.229 42.742 C 517.061 49.209, 514.971 61.025, 513.584 69 C 510.010 89.553, 500.494 143.396, 496.883 163.500 C 495.203 172.850, 493.229 184.100, 492.497 188.500 C 490.394 201.129, 475.114 287.687, 473.520 296 C 472.729 300.125, 470.931 310.250, 469.523 318.500 C 468.116 326.750, 465.624 340.925, 463.985 350 C 455.873 394.916, 452.583 414.917, 453.205 415.539 C 453.582 415.915, 481.107 416.464, 514.372 416.758 L 574.854 417.293 575.373 413.897 C 577.638 399.068, 581.266 375.846, 582.544 368 C 583.395 362.775, 584.559 355.350, 585.131 351.500 C 585.703 347.650, 586.553 342.475, 587.020 340 C 587.488 337.525, 588.824 328.975, 589.989 321 C 591.154 313.025, 592.965 301.325, 594.013 295 C 595.061 288.675, 596.858 277.200, 598.006 269.500 C 602.265 240.933, 605.047 225.911, 605.973 226.483 C 606.375 226.731, 607.504 229.087, 608.483 231.717 C 609.462 234.348, 610.654 236.927, 611.131 237.450 C 611.609 237.972, 612 238.990, 612 239.711 C 612 240.432, 612.945 243.154, 614.100 245.761 C 617.915 254.372, 622.237 265.096, 624.616 271.852 C 625.459 274.245, 626.944 277.620, 627.916 279.352 C 628.889 281.083, 633.172 291.275, 637.436 302 C 641.699 312.725, 645.820 322.807, 646.593 324.404 C 647.367 326.001, 648 327.693, 648 328.165 C 648 328.636, 648.873 330.929, 649.939 333.261 C 651.005 335.592, 658.677 354.556, 666.986 375.403 C 675.295 396.250, 682.490 414.048, 682.975 414.953 C 683.777 416.451, 689.558 416.626, 746.789 416.885 C 818.060 417.207, 810.343 418.199, 812.028 408.500 C 812.506 405.750, 814.256 395.625, 815.918 386 C 817.580 376.375, 819.877 363.325, 821.024 357 C 824.616 337.177, 825.059 334.643, 825.917 329 C 826.378 325.975, 827.942 316.975, 829.394 309 C 831.800 295.777, 834.362 281.351, 837.120 265.500 C 837.694 262.200, 838.564 257.475, 839.053 255 C 839.542 252.525, 840.372 247.800, 840.897 244.500 C 841.422 241.200, 843.246 230.850, 844.949 221.500 C 846.652 212.150, 848.475 201.800, 848.999 198.500 C 849.524 195.200, 851.301 185.075, 852.947 176 C 854.594 166.925, 856.436 156.575, 857.042 153 C 857.648 149.425, 858.561 144.138, 859.072 141.250 C 859.582 138.363, 860.418 133.638, 860.928 130.750 C 861.439 127.863, 862.380 122.350, 863.019 118.500 C 863.659 114.650, 865.038 107.225, 866.084 102 C 867.129 96.775, 868.731 88, 869.643 82.500 C 870.555 77, 871.695 70.250, 872.176 67.500 C 872.658 64.750, 873.052 61.564, 873.051 60.420 C 873.051 59.276, 874.103 52.427, 875.390 45.202 C 876.677 37.976, 877.491 31.824, 877.199 31.532 C 876.906 31.239, 849.552 31, 816.413 31 L 756.159 31 755.601 33.750 C 755.023 36.598, 752.650 51.586, 744.006 107 C 741.217 124.875, 738.065 144.900, 737.001 151.500 C 735.937 158.100, 733.903 170.925, 732.482 180 C 731.061 189.075, 729.066 199.875, 728.050 204 C 727.035 208.125, 725.642 215.662, 724.957 220.750 C 724.090 227.179, 723.303 230, 722.374 230 C 721.639 230, 720.742 228.762, 720.381 227.250 C 720.020 225.738, 719.405 224.050, 719.015 223.500 C 718.625 222.950, 717.226 219.350, 715.907 215.500 C 714.588 211.650, 713.169 208.350, 712.754 208.167 C 712.339 207.983, 712 207.256, 712 206.550 C 712 205.230, 709.183 197.738, 705.875 190.261 C 704.844 187.929, 704 185.582, 704 185.045 C 704 184.507, 703.341 182.590, 702.536 180.784 C 701.730 178.978, 699.975 174.575, 698.636 171 C 694.766 160.674, 690.905 150.752, 689.489 147.500 C 688.771 145.850, 686.319 139.550, 684.041 133.500 C 681.763 127.450, 679.514 121.600, 679.043 120.500 C 678.571 119.400, 675.852 112.425, 673 105 C 670.148 97.575, 667.346 90.375, 666.773 89 C 666.201 87.625, 665.403 85.600, 665 84.500 C 664.597 83.400, 663.801 81.375, 663.231 80 C 662.661 78.625, 661.294 75.025, 660.192 72 C 659.091 68.975, 657.849 65.600, 657.431 64.500 C 657.014 63.400, 656.627 62.275, 656.571 62 C 656.515 61.725, 656.026 60.835, 655.485 60.022 C 654.943 59.209, 652.025 52.459, 649 45.022 L 643.500 31.500 581.927 31.242 L 520.354 30.985 518.229 42.742 M 919 32.058 C 919 32.640, 922.538 39.953, 926.863 48.308 C 931.188 56.664, 941.821 77.450, 950.492 94.500 C 965.954 124.904, 974.034 140.711, 999.373 190.125 C 1006.318 203.669, 1012 215.019, 1012 215.349 C 1012 215.902, 1004.836 224.086, 986.483 244.500 C 965.971 267.317, 916.144 322.866, 900.007 340.908 C 895.379 346.083, 890.672 351.283, 889.546 352.463 C 888.421 353.644, 885.475 356.847, 883 359.581 C 880.525 362.316, 876.250 367.021, 873.500 370.039 C 870.750 373.056, 865.125 379.344, 861 384.012 C 856.875 388.679, 850.125 395.913, 846 400.087 C 835.420 410.792, 831.723 415.056, 832.419 415.752 C 833.331 416.664, 985.342 417.191, 986.547 416.286 C 987.575 415.514, 1008.305 389.826, 1015.023 381 C 1016.907 378.525, 1018.688 376.275, 1018.980 376 C 1019.428 375.578, 1022.132 372.231, 1034.327 357 C 1034.987 356.175, 1037.096 353.486, 1039.014 351.025 C 1040.931 348.563, 1043.069 345.937, 1043.765 345.188 C 1044.461 344.439, 1046.261 342.185, 1047.765 340.177 C 1049.269 338.170, 1051.531 335.346, 1052.792 333.902 C 1054.053 332.458, 1057.653 327.943, 1060.792 323.869 C 1072.695 308.421, 1076.348 304, 1077.211 304 C 1077.701 304, 1078.797 305.688, 1079.646 307.750 C 1082.516 314.719, 1084.180 318.485, 1086.094 322.345 C 1087.142 324.459, 1088 326.717, 1088 327.363 C 1088 328.009, 1090.627 333.929, 1093.838 340.518 C 1097.049 347.108, 1100.920 355.650, 1102.441 359.500 C 1103.961 363.350, 1105.809 367.850, 1106.548 369.500 C 1107.286 371.150, 1112.019 382.175, 1117.064 394 C 1122.110 405.825, 1126.725 415.808, 1127.321 416.184 C 1129.304 417.436, 1271 417.184, 1271 415.929 C 1271 415.309, 1270.287 413.159, 1269.416 411.151 C 1267.683 407.158, 1267.789 407.367, 1262.177 396.825 C 1260.033 392.796, 1253.203 379.375, 1246.999 367 C 1240.795 354.625, 1234.882 343.306, 1233.860 341.846 C 1232.837 340.386, 1232 338.473, 1232 337.596 C 1232 336.718, 1231.550 336, 1231 336 C 1230.450 336, 1230 335.388, 1230 334.640 C 1230 333.313, 1224.066 320.992, 1222.949 320 C 1222.640 319.725, 1221.771 317.925, 1221.019 316 C 1220.266 314.075, 1218.829 311.306, 1217.825 309.846 C 1216.821 308.386, 1216 306.511, 1216 305.679 C 1216 304.847, 1215.625 304.017, 1215.166 303.833 C 1214.707 303.650, 1211.604 298.100, 1208.272 291.500 C 1204.939 284.900, 1197.596 270.500, 1191.955 259.500 C 1172.625 221.810, 1170.036 216.497, 1170.018 214.475 C 1170.008 213.361, 1172.138 210.178, 1174.750 207.402 C 1179.775 202.061, 1192.450 188.164, 1200.614 179.042 C 1203.301 176.040, 1206.716 172.283, 1208.203 170.693 C 1209.690 169.103, 1213.740 164.645, 1217.203 160.786 C 1220.666 156.927, 1225.075 152.087, 1227 150.030 C 1228.925 147.973, 1234.325 142.069, 1239 136.910 C 1243.675 131.750, 1248.400 126.594, 1249.500 125.451 C 1250.600 124.308, 1254.425 120.026, 1258 115.936 C 1261.575 111.846, 1264.992 108.050, 1265.593 107.500 C 1266.194 106.950, 1269.569 103.333, 1273.093 99.462 C 1276.617 95.592, 1283.325 88.230, 1288 83.102 C 1299.334 70.671, 1300.903 68.916, 1305 64.089 C 1306.925 61.821, 1313.675 54.228, 1320 47.215 C 1326.325 40.202, 1332.118 33.685, 1332.872 32.732 C 1334.172 31.092, 1330.212 31, 1258.654 31 L 1183.064 31 1175.708 40.250 C 1171.663 45.338, 1159.865 60.525, 1149.491 74 C 1127.457 102.622, 1116.603 116.284, 1112.470 120.604 C 1110.837 122.311, 1108.022 125.676, 1106.216 128.081 C 1103.172 132.133, 1102.889 132.290, 1102.349 130.227 C 1102.029 129.002, 1101.369 128, 1100.883 128 C 1100.398 128, 1100 127.345, 1100 126.545 C 1100 125.744, 1097.959 120.232, 1095.464 114.295 C 1092.969 108.358, 1090.207 101.700, 1089.328 99.500 C 1088.448 97.300, 1087.151 94.150, 1086.446 92.500 C 1085.741 90.850, 1083.279 84.775, 1080.976 79 C 1078.673 73.225, 1076.299 67.375, 1075.701 66 C 1075.103 64.625, 1074.589 63.050, 1074.557 62.500 C 1074.526 61.950, 1073.980 61.050, 1073.346 60.500 C 1072.711 59.950, 1069.855 53.650, 1067 46.500 C 1064.145 39.350, 1061.579 32.938, 1061.297 32.250 C 1060.618 30.590, 919 30.399, 919 32.058 M 197.287 444.740 C 200.469 444.939, 205.419 444.937, 208.287 444.736 C 211.154 444.535, 208.550 444.372, 202.500 444.374 C 196.450 444.376, 194.104 444.541, 197.287 444.740" stroke="none" fill="#d9f5ff" fill-rule="evenodd"/></svg>