<svg xmlns="http://www.w3.org/2000/svg" width="1273" height="768" viewBox="0 0 1273 768" version="1.1"><path d="M 985.500 64.976 C 969.552 67.268, 945.681 73.386, 929 79.456 C 912.795 85.354, 883.436 99.954, 869.614 108.988 C 841.441 127.403, 816.704 152.095, 802.073 176.410 C 796.679 185.373, 794.108 191.217, 788.396 207.500 L 784.537 218.500 784.519 235.500 C 784.491 260.300, 787.942 270.918, 799.982 283.089 C 805.506 288.674, 807.757 290.162, 814.745 292.849 C 826.051 297.198, 833.719 298.882, 845.701 299.647 L 855.903 300.298 852.990 293.140 C 848.373 281.794, 846.914 272.628, 846.914 254.953 C 846.914 224.726, 851.797 201.666, 863.037 178.801 C 869.822 164.999, 876.122 156.016, 886.951 144.707 C 897.678 133.504, 908.690 124.920, 920.844 118.288 C 929.699 113.457, 945.024 106.690, 945.663 107.330 C 945.873 107.540, 957.081 160.148, 970.571 224.236 L 995.097 340.761 934.966 447.131 C 901.894 505.634, 873.728 555.413, 872.375 557.750 L 869.916 562 890.208 561.963 L 910.500 561.927 958.499 479.033 C 984.898 433.441, 1006.782 396.670, 1007.129 397.319 C 1007.477 397.969, 1015.571 435.288, 1025.117 480.250 L 1042.474 562 1095.345 562 L 1148.217 562 1147.668 559.750 C 1147.366 558.512, 1133.317 490.675, 1116.448 409 C 1091.988 290.571, 1085.979 259.994, 1086.775 258 C 1087.323 256.625, 1112.336 212.975, 1142.359 161 L 1196.946 66.500 1174.278 66.231 C 1156.960 66.025, 1151.333 66.261, 1150.435 67.231 C 1149.789 67.929, 1132.495 98.200, 1112.003 134.500 C 1091.512 170.800, 1074.446 200.835, 1074.079 201.245 C 1073.711 201.654, 1067.030 171.104, 1059.232 133.354 C 1051.433 95.605, 1044.778 64.445, 1044.443 64.110 C 1044.108 63.774, 1033.634 63.412, 1021.167 63.304 C 1003.513 63.151, 995.625 63.521, 985.500 64.976" stroke="none" fill="#d90000" fill-rule="evenodd"/><path d="M 497.500 66.923 C 476.529 70.413, 462.454 74.817, 444.356 83.549 C 429.073 90.922, 414.669 100.364, 403.840 110.108 C 399.627 113.898, 395.739 117, 395.201 117 C 393.061 117, 375.293 138.271, 366.888 150.897 C 352.259 172.872, 343.147 193.648, 338.326 216.024 C 335.775 227.863, 335.793 255.704, 338.357 264.920 C 345.498 290.589, 364.276 303.686, 396.796 305.679 L 407.093 306.310 404.901 300.905 C 398.902 286.117, 398.591 284.086, 398.557 259.500 C 398.529 239.397, 398.814 235.063, 400.823 225.090 C 404.402 207.322, 411.672 187.672, 418.427 177.500 C 420.254 174.750, 423.797 169.350, 426.302 165.500 C 439.395 145.372, 458.629 128.731, 482.854 116.571 C 487.999 113.988, 492.405 112.071, 492.644 112.311 C 492.884 112.551, 471.573 214.166, 445.286 338.124 L 397.492 563.500 444.903 563.760 C 470.979 563.903, 492.548 563.786, 492.834 563.500 C 493.120 563.214, 509.830 485.379, 529.967 390.533 C 550.104 295.687, 566.787 217.881, 567.040 217.631 C 567.293 217.381, 580.066 294.649, 595.423 389.338 C 610.781 484.027, 623.544 562.068, 623.785 562.761 C 624.129 563.754, 632.759 563.967, 664.308 563.761 L 704.393 563.500 740.660 393 C 760.606 299.225, 778.287 215.975, 779.949 208 C 781.612 200.025, 785.217 182.700, 787.960 169.500 C 790.703 156.300, 796.787 127.541, 801.480 105.590 C 806.174 83.640, 809.846 65.513, 809.641 65.308 C 808.930 64.596, 714 66.326, 714 67.051 C 714 68.441, 642.954 421.511, 642.229 423.726 C 641.780 425.097, 631.465 358.549, 615.346 250.283 C 593.012 100.267, 588.927 74.419, 587.371 73.282 C 585.442 71.872, 575.464 68.695, 567.359 66.911 C 564.687 66.322, 550.350 65.672, 535.500 65.466 C 512.759 65.151, 506.765 65.380, 497.500 66.923" stroke="none" fill="#0074d9" fill-rule="evenodd"/><path d="M 299.500 71.099 C 258.203 74.902, 215.736 89.406, 177.500 112.765 C 129.355 142.177, 96.099 184.033, 87.939 225.485 C 86.247 234.081, 86.509 256.073, 88.401 264.230 C 93.315 285.416, 106.584 299.092, 127.500 304.530 C 134.495 306.348, 155.639 308.694, 156.578 307.756 C 156.930 307.403, 156.057 304.051, 154.638 300.307 C 150.675 289.856, 149.052 281.612, 148.378 268.500 C 147.383 249.141, 150.666 224.309, 156.589 206.396 C 167.012 174.876, 188.106 148.077, 216.500 130.283 C 223.710 125.765, 240.029 117.696, 240.667 118.333 C 240.965 118.632, 238.700 130.491, 235.633 144.688 C 229.395 173.561, 145.620 563.099, 143.627 572.500 L 142.354 578.500 157.427 578.579 C 204.889 578.829, 241.101 596.376, 315.968 655.401 C 380.031 705.909, 405.483 721.072, 436.991 727.498 C 442.811 728.685, 448.629 729.097, 456.010 728.844 C 465.934 728.505, 467.152 728.229, 474.276 724.708 C 499.813 712.087, 516.098 680.259, 523.331 628.836 L 523.846 625.171 516.673 627.617 C 486.703 637.833, 451.444 637.759, 417.270 627.407 C 397.326 621.366, 363.405 605.719, 327.500 586 C 294.363 567.802, 270.059 556.799, 252.269 551.943 C 244.897 549.931, 244.090 549.478, 244.537 547.598 C 247.057 537.005, 345.995 74.106, 345.997 72.901 C 345.999 71.588, 344.251 71.186, 336.250 70.656 C 324.193 69.858, 311.293 70.013, 299.500 71.099" stroke="none" fill="#186612" fill-rule="evenodd"/><path d="M 0 384.001 L 0 768.002 636.750 767.751 L 1273.500 767.500 1273.751 383.750 L 1274.003 -0 637.001 -0 L 0 0 0 384.001 M 0.495 384.500 C 0.495 595.700, 0.610 681.951, 0.750 576.169 C 0.890 470.386, 0.890 297.586, 0.750 192.169 C 0.610 86.751, 0.495 173.300, 0.495 384.500 M 985.500 64.976 C 969.552 67.268, 945.681 73.386, 929 79.456 C 912.795 85.354, 883.436 99.954, 869.614 108.988 C 841.441 127.403, 816.704 152.095, 802.073 176.410 C 796.679 185.373, 794.108 191.217, 788.396 207.500 L 784.537 218.500 784.519 235.500 C 784.491 260.300, 787.942 270.918, 799.982 283.089 C 805.506 288.674, 807.757 290.162, 814.745 292.849 C 826.051 297.198, 833.719 298.882, 845.701 299.647 L 855.903 300.298 852.990 293.140 C 848.373 281.794, 846.914 272.628, 846.914 254.953 C 846.914 224.726, 851.797 201.666, 863.037 178.801 C 869.822 164.999, 876.122 156.016, 886.951 144.707 C 897.678 133.504, 908.690 124.920, 920.844 118.288 C 929.699 113.457, 945.024 106.690, 945.663 107.330 C 945.873 107.540, 957.081 160.148, 970.571 224.236 L 995.097 340.761 934.966 447.131 C 901.894 505.634, 873.728 555.413, 872.375 557.750 L 869.916 562 890.208 561.963 L 910.500 561.927 958.499 479.033 C 984.898 433.441, 1006.782 396.670, 1007.129 397.319 C 1007.477 397.969, 1015.571 435.288, 1025.117 480.250 L 1042.474 562 1095.345 562 L 1148.217 562 1147.668 559.750 C 1147.366 558.512, 1133.317 490.675, 1116.448 409 C 1091.988 290.571, 1085.979 259.994, 1086.775 258 C 1087.323 256.625, 1112.336 212.975, 1142.359 161 L 1196.946 66.500 1174.278 66.231 C 1156.960 66.025, 1151.333 66.261, 1150.435 67.231 C 1149.789 67.929, 1132.495 98.200, 1112.003 134.500 C 1091.512 170.800, 1074.446 200.835, 1074.079 201.245 C 1073.711 201.654, 1067.030 171.104, 1059.232 133.354 C 1051.433 95.605, 1044.778 64.445, 1044.443 64.110 C 1044.108 63.774, 1033.634 63.412, 1021.167 63.304 C 1003.513 63.151, 995.625 63.521, 985.500 64.976 M 497.500 66.923 C 476.529 70.413, 462.454 74.817, 444.356 83.549 C 429.073 90.922, 414.669 100.364, 403.840 110.108 C 399.627 113.898, 395.739 117, 395.201 117 C 393.061 117, 375.293 138.271, 366.888 150.897 C 352.259 172.872, 343.147 193.648, 338.326 216.024 C 335.775 227.863, 335.793 255.704, 338.357 264.920 C 345.498 290.589, 364.276 303.686, 396.796 305.679 L 407.093 306.310 404.901 300.905 C 398.902 286.117, 398.591 284.086, 398.557 259.500 C 398.529 239.397, 398.814 235.063, 400.823 225.090 C 404.402 207.322, 411.672 187.672, 418.427 177.500 C 420.254 174.750, 423.797 169.350, 426.302 165.500 C 439.395 145.372, 458.629 128.731, 482.854 116.571 C 487.999 113.988, 492.405 112.071, 492.644 112.311 C 492.884 112.551, 471.573 214.166, 445.286 338.124 L 397.492 563.500 444.903 563.760 C 470.979 563.903, 492.548 563.786, 492.834 563.500 C 493.120 563.214, 509.830 485.379, 529.967 390.533 C 550.104 295.687, 566.787 217.881, 567.040 217.631 C 567.293 217.381, 580.066 294.649, 595.423 389.338 C 610.781 484.027, 623.544 562.068, 623.785 562.761 C 624.129 563.754, 632.759 563.967, 664.308 563.761 L 704.393 563.500 740.660 393 C 760.606 299.225, 778.287 215.975, 779.949 208 C 781.612 200.025, 785.217 182.700, 787.960 169.500 C 790.703 156.300, 796.787 127.541, 801.480 105.590 C 806.174 83.640, 809.846 65.513, 809.641 65.308 C 808.930 64.596, 714 66.326, 714 67.051 C 714 68.441, 642.954 421.511, 642.229 423.726 C 641.780 425.097, 631.465 358.549, 615.346 250.283 C 593.012 100.267, 588.927 74.419, 587.371 73.282 C 585.442 71.872, 575.464 68.695, 567.359 66.911 C 564.687 66.322, 550.350 65.672, 535.500 65.466 C 512.759 65.151, 506.765 65.380, 497.500 66.923 M 299.500 71.099 C 258.203 74.902, 215.736 89.406, 177.500 112.765 C 129.355 142.177, 96.099 184.033, 87.939 225.485 C 86.247 234.081, 86.509 256.073, 88.401 264.230 C 93.315 285.416, 106.584 299.092, 127.500 304.530 C 134.495 306.348, 155.639 308.694, 156.578 307.756 C 156.930 307.403, 156.057 304.051, 154.638 300.307 C 150.675 289.856, 149.052 281.612, 148.378 268.500 C 147.383 249.141, 150.666 224.309, 156.589 206.396 C 167.012 174.876, 188.106 148.077, 216.500 130.283 C 223.710 125.765, 240.029 117.696, 240.667 118.333 C 240.965 118.632, 238.700 130.491, 235.633 144.688 C 229.395 173.561, 145.620 563.099, 143.627 572.500 L 142.354 578.500 157.427 578.579 C 204.889 578.829, 241.101 596.376, 315.968 655.401 C 380.031 705.909, 405.483 721.072, 436.991 727.498 C 442.811 728.685, 448.629 729.097, 456.010 728.844 C 465.934 728.505, 467.152 728.229, 474.276 724.708 C 499.813 712.087, 516.098 680.259, 523.331 628.836 L 523.846 625.171 516.673 627.617 C 486.703 637.833, 451.444 637.759, 417.270 627.407 C 397.326 621.366, 363.405 605.719, 327.500 586 C 294.363 567.802, 270.059 556.799, 252.269 551.943 C 244.897 549.931, 244.090 549.478, 244.537 547.598 C 247.057 537.005, 345.995 74.106, 345.997 72.901 C 345.999 71.588, 344.251 71.186, 336.250 70.656 C 324.193 69.858, 311.293 70.013, 299.500 71.099" stroke="none" fill="#fbfbfb" fill-rule="evenodd"/></svg>